<?xml version="1.0" standalone="no"?>
<!DOCTYPE svg PUBLIC "-//W3C//DTD SVG 20010904//EN"
 "http://www.w3.org/TR/2001/REC-SVG-20010904/DTD/svg10.dtd">
<svg version="1.0" xmlns="http://www.w3.org/2000/svg"
 width="800.000000pt" height="600.000000pt" viewBox="0 0 800.000000 600.000000"
 preserveAspectRatio="xMidYMid meet">

<g transform="translate(0.000000,600.000000) scale(0.100000,-0.100000)"
fill="#000000" stroke="none">
<path d="M1565 5343 c-28 -7 -55 -33 -55 -53 0 -9 9 -25 21 -36 20 -18 45 -19
634 -19 589 0 614 1 634 19 27 24 27 48 0 72 -20 18 -46 19 -618 20 -328 1
-605 0 -616 -3z"/>
<path d="M1565 5073 c-28 -7 -55 -33 -55 -53 0 -9 9 -25 21 -36 20 -18 45 -19
634 -19 589 0 614 1 634 19 27 24 27 48 0 72 -20 18 -46 19 -618 20 -328 1
-605 0 -616 -3z"/>
<path d="M1565 4813 c-28 -7 -55 -33 -55 -53 0 -9 9 -25 21 -36 20 -18 45 -19
634 -19 589 0 614 1 634 19 27 24 27 48 0 72 -20 18 -46 19 -618 20 -328 1
-605 0 -616 -3z"/>
</g>
</svg>
